<svg width="1764" height="248" viewBox="0 0 1764 248" fill="none" xmlns="http://www.w3.org/2000/svg">
<path d="M96.557 207.139C120.574 207.139 138.669 192.005 138.669 164.369C138.669 135.088 118.6 120.941 97.544 120.941C78.791 120.941 64.973 129.166 56.748 144.629L7.069 139.694L23.848 4.47499H183.413V48.561H68.921L63.328 93.305C74.843 85.409 93.925 80.803 110.704 80.803C153.803 80.803 194.599 108.768 194.599 164.04C194.599 218.654 149.526 247.277 97.215 247.277C47.865 247.277 8.714 220.299 0.818001 169.633H53.129C58.064 197.269 75.501 207.139 96.557 207.139ZM306.433 75.21L249.845 144.958H306.433V75.21ZM393.618 144.958V192.663H360.718V243H306.433V192.663H190.296V150.222L310.381 4.47499H360.718V144.958H393.618ZM425.418 243L515.235 4.47499H577.087L667.233 243H606.039L591.563 200.559H499.443L485.296 243H425.418ZM545.832 64.024L514.906 154.828H576.429L545.832 64.024ZM765.692 0.526984C818.661 0.526984 861.102 27.176 872.617 79.158H817.345C812.081 62.708 795.631 46.916 765.034 46.916C730.489 46.916 703.511 72.578 703.511 122.915C703.511 173.252 728.186 200.888 766.021 200.888C792.012 200.888 818.99 191.018 818.99 160.75V156.144H761.415V110.084H875.249V243H832.15L830.505 216.68C815.042 237.736 791.683 247.277 757.467 247.277C687.39 247.277 643.962 199.243 643.962 122.915C643.962 47.574 693.312 0.526984 765.692 0.526984ZM896.371 243V4.47499H1079.3V53.825H952.63V95.608H1072.39V145.287H952.63V193.321H1079.3V243H896.371ZM1313.24 243H1244.81L1149.07 78.5V243H1094.79V4.47499H1163.22L1258.96 168.975V4.47499H1313.24V243ZM1499.76 154.17H1555.03C1546.15 209.442 1501.73 247.277 1441.53 247.277C1367.17 247.277 1322.1 199.901 1322.1 123.573C1322.1 48.232 1368.49 0.526984 1443.17 0.526984C1502.72 0.526984 1545.49 39.349 1553.39 93.634H1498.11C1491.86 61.063 1467.85 46.916 1441.2 46.916C1407.97 46.916 1381.65 74.881 1381.65 123.573C1381.65 173.91 1407.64 200.888 1441.86 200.888C1466.53 200.888 1492.52 190.36 1499.76 154.17ZM1525.68 4.47499H1591.48L1644.78 95.937L1698.74 4.47499H1763.88L1671.76 150.88V243H1615.5V150.222L1525.68 4.47499Z" fill="#808080"/>
</svg>
